<?xml version="1.0" encoding="utf-8"?>
<!-- Generator: Adobe Illustrator 23.1.1, SVG Export Plug-In . SVG Version: 6.00 Build 0)  -->
<svg version="1.1" xmlns="http://www.w3.org/2000/svg" xmlns:xlink="http://www.w3.org/1999/xlink" x="0px" y="0px"
	 viewBox="0 0 680.31 283.46" style="enable-background:new 0 0 680.31 283.46;" xml:space="preserve">
<style type="text/css">
	.st0{display:none;}
	.st1{display:inline;}
	.st2{fill:#55A532;}
</style>
<g id="Alter_Slogan" class="st0">
</g>
<g id="Layer_1">
	<g>
		<g>
			<path class="st2" d="M436.74,227.23c-5.14-0.31-37.47-7.26-60.06-12.09c2.47-4.35,4.4-9.12,5.56-13.96
				c5.79-23.91,16.02-64.57,23.08-76.24c11.73-19.41,24.95-21.48,29.48-15.73c4.53,5.74-2.15,14.23-5.92,19.11
				c-3.77,4.87-7.54,2.95-10.76,4.57c-3.23,1.61,2.15,3.5,9.41,1.88c7.26-1.61,17.32-10.42,17.32-18.29
				c0-5.4-1.18-15.33-24.46-12.64c-23.27,2.69-34.29,36.32-43.02,75.99c-3.55,16.13-7.4,26.49-10.74,33.18
				c-5.64-1.19-9.82-2.06-11.47-2.34c-7.92-1.35-30.66,0.1-21.78,12.48c13.2,16.92,28.72,11.39,38.96-1.54
				c23.46,3.49,52.39,8.9,58.2,10c9.42,1.77,19.1-1.77,17.76-4.38C446.96,224.63,444.27,227.68,436.74,227.23 M358.02,224.66
				c-15.6,9.42-27.42-3.16-16.2-5.8c2.69-0.62,10.54,0.04,20.54,1.35C359.76,223.78,358.02,224.66,358.02,224.66"/>
			<path class="st2" d="M487.33,106.38c-0.5-5.85-8.71-14.7-16.28-2.08c-7.57,12.62-18.66,37.51-20.85,63.51
				c-1.31,13.03-0.55,23.86,2.14,32.05c-6.65,12.99-24.26,13.68-30.37,3.38c3.87-2.27,14.63-9.42,19.14-19.23
				c7.66-16.02-11.75-28.64-19.77-17.71c-2.92,3.58-7.23,10.93-8.55,19.41c-4.21,29.09,32.46,42.08,42.9,21.37
				c2.7,4.32,6.25,7.38,10.66,8.97c14.53,5.09,19.29-14.13,19.83-26.95c0.72-13.38-9.59-26.76-20.55-22.05
				c3.02-6.98,6.35-14.33,9.33-19.98C482.71,132.57,487.77,112.4,487.33,106.38 M419.64,196.27c-0.18-1.89-0.04-3.58,0.23-5.65
				c0.74-6.03,3.59-11.87,6.09-16.02c7.43-10.93,12.95-4.14,10.21,3.2C434.73,182.32,428.33,192.5,419.64,196.27 M468.63,171.77
				c4.05-0.94,6.29-0.57,8.52,6.03c3.01,8.48,0.41,36.38-12.17,32.6c-5.57-1.7-7.08-13.01-6.3-26.58c1.48-3.39,3.5-8.48,5.9-14.13
				C465.58,170.83,468.18,171.96,468.63,171.77 M458.49,166.65c2.01-11.87,7.47-27.86,9.23-32.76c9.19-24.5,15.17-30.91,12.45-18.66
				C477.83,125.03,466.68,152.71,458.49,166.65"/>
			<path class="st2" d="M590.15,199.66c-1,1.89-2.79,5.65-5.13,8.67c-1.33,1.7-9.66,8.66-15.23,4.52c-1.28-0.94-1.99-3.02-2.43-6.6
				c-0.69-7.72,6.35-27.32,7.23-28.83c0.79-1.88-6.6-7.73-10.79-5.08c-5.67,3.58-17.59,20.54-19.77,24.31
				c-1.19,1.89-2.24,2.08-2.47,0.94c-0.03-1.13,3.15-17.9,3.26-18.85c0.22-3.2-8.84-9.99-9.91-6.03
				c-0.23,1.61-1.69,16.78-2.64,26.89c-0.01,0.02-0.04,0.04-0.04,0.06c-6.58,13.19-24.34,13.94-30.5,3.58
				c3.88-2.26,14.63-9.42,19.14-19.22c7.67-16.02-11.75-28.64-19.76-17.72c-2.92,3.58-7.24,10.93-8.56,19.42
				c-3.83,26.5,26.26,39.63,39.55,26.13c2,5.47,8.36,9.68,9.61,6.28c4.12-11.68,11.49-22.42,14.88-27.51
				c1.39-1.89,2.91-1.7,2.63-0.19c-0.23,1.32-0.86,6.4,0.13,13.19c1.28,7.73,9.89,17.15,20.38,16.39
				c9.84-0.56,13.12-9.61,15.21-16.2C595.6,201.74,590.91,198.53,590.15,199.66 M499.43,196.27c-0.18-1.89-0.04-3.58,0.23-5.65
				c0.74-6.04,3.59-11.88,6.09-16.02c7.42-10.93,12.94-4.14,10.21,3.2C514.52,182.32,508.12,192.5,499.43,196.27"/>
			<path class="st2" d="M605.73,209.2c-3.8-2.29-5.98,0.6-4.64,3.49c0.68,1.44,1.47,2.52,3.22,3.73c3.72,2.52,6.49-0.6,4.8-3.61
				C608.31,211.36,607.39,210.29,605.73,209.2"/>
			<path class="st2" d="M677.35,206.43c-4.2,8.43-15.55,8.91-19.48,2.29c2.48-1.44,9.35-6.02,12.22-12.27
				c4.9-10.23-7.5-18.29-12.62-11.31c-1.86,2.29-4.62,6.98-5.46,12.39c-0.54,3.7-0.04,6.99,1.16,9.79
				c-1.53,2.45-6.13,8.89-10.44,7.05c-3.1-1.33-6.37-6.86-5.06-16.49c5.46-9.63,9.41-19.26,12.23-24.55
				c6.35-12.39,7.42-21.3,6.57-24.91c-0.74-3.61-6.03-9.5-10.83-4.33c-2.8,3.25-10.43,27.21-12,43.93c-2.57-1.8-5.76-3.25-8.6-3.01
				c-4.61,0.24-10.01,4.94-12.24,10.35c-2.34,5.78-3.39,15.77,5.57,21.18c4.53,2.77,12.31,2.05,16.4-8.42
				c0.57,3.73,3.26,6.74,6.3,8.66c4.73,2.86,11.13,2.38,14.63-5.35c6.92,8.29,20.93,9.05,24.56-2.35
				C680.7,207.75,677.62,205.59,677.35,206.43 M648.34,151.07c2.86-6.62,6.18-4.81,4.02,1.21c-9.45,28.04-10.4,27.08-12.92,31.41
				C641.04,173.94,643.52,162.63,648.34,151.07 M632.92,195.84c-3.85,9.3-5.16,13.46-7.21,16.36c-2.74,3.85-8.51,0.61-9.4-3.72
				c-0.88-4.33,2.12-14.92,7.7-19.02c3.41-2.41,7.22-0.12,9.35,2.65C633.18,193.43,633.14,194.75,632.92,195.84 M656.4,204.27
				c-0.12-1.21-0.02-2.29,0.15-3.62c0.48-3.84,2.29-7.58,3.89-10.22c4.75-6.98,8.27-2.65,6.51,2.05
				C666.03,195.36,661.95,201.86,656.4,204.27"/>
			<path class="st2" d="M321.21,199.66c-1,1.89-2.79,5.65-5.13,8.67c-1.33,1.7-9.66,8.66-15.24,4.52c-1.28-0.94-1.99-3.02-2.43-6.6
				c-0.69-7.72,6.35-27.32,7.23-28.83c0.8-1.88-6.6-7.73-10.79-5.08c-5.67,3.58-17.59,20.54-19.77,24.31
				c-1.19,1.89-2.24,2.08-2.46,0.94c-0.04-1.13,3.15-17.9,3.25-18.85c0.24-3.2-8.83-9.99-9.89-6.03
				c-0.24,1.63-1.74,17.17-2.68,27.26c-2.97,4.98-6.61,9.72-9.9,11.56c-3.03,2.07-7.53,0.76-6.81-5.84
				c1.17-9.23,4.29-21.48,7.15-24.88c2.66-3.39-6.85-11.87-12.16-11.3c-4.96,0.75-6.93,0.75-7.63-2.64c-1-4.9-8.08-9.23-10.33-5.27
				c-1.32,2.26-1.36,7.35,2.69,11.3c-0.71,7.45-3.32,19.22-7.2,27.18c-6.75,12.76-24.18,13.41-30.25,3.15
				c3.87-2.26,14.63-9.42,19.13-19.22c7.67-16.02-11.74-28.64-19.76-17.72c-2.92,3.58-7.24,10.93-8.56,19.42
				c-0.84,5.81-0.04,10.97,1.85,15.36c-1.74,2.88-4.57,6.48-6.92,8.57c-4.93,4.34-11.91-0.94-11.76-6.97
				c1.27-26.19,7.2-38.63,12.38-52.39c17.44-0.95,35.4-2.26,44.83-2.83c2.17,0-2.29-6.41-7.42-6.41c-1.18,0-17.12,0.57-34.5,1.32
				c3.63-10.74,6.04-17.71,6.15-18.66c1.04-2.64-5.96-8.48-7.61-6.4c-1.01,1.31-5.12,13.56-9.1,25.44
				c-6.08,0.25-12.03,0.48-17.32,0.68c3.15-11.35,5.1-22.93,5.48-34.6c0.44-9.42-10.81-14.89-15.92-9.99
				c-11.17,10.93-34.78,65.21-25.93,98.56c0.3,1.14,0.63,2.26,1.01,3.34l0.2,0.58c-2.06,3.32-15.4,21.25-55.68,21.25
				c-46.05,0-60.48-29.21-45.38-42.21c23.46-19.98,57.74-19.44,70.65-19.61c4.24-0.06,4.49,1.97,5.77-0.11
				c1.44-2.07-1.51-7.54-5.88-7.92c-4.22-0.37-15.17,0.95-15.17,0.95s-34.49,6.16-41.62-9.1c-7.39-15.45,27.33-25.51,44.04-27.14
				c14.31-1.4,25.37-1.07,28.32,2.5c3.43,4.15-12.18,10.56-17.83,6.04c-1.78-1.51-4.39-0.95-3.05,1.13
				c0.75,1.32,3.52,5.65,14.58,4.52c11.06-1.13,14.42-7.17,11.42-12.44c-7.28-12.81-43.73-13-66.62-3.95
				c-14.81,5.65-23.89,14.89-16.32,27.13c4.06,6.6,9.79,12.63,18.51,16.58c-6.41,0.38-54.73,8.86-36.9,42.97
				c17.41,33.08,81.46,41.86,113.5,6.34c0.22,0.05,0.41,0.04,0.53-0.12l0.12-0.38c6.23,10.75,16.46,16.97,26.62,14.14
				c5.75-1.67,10.18-7.58,12.92-13.65c2.04,3.52,4.86,6.02,7.77,7.43c9.06,4.33,15.97-1.88,18.61-5.84
				c0.49-0.74,0.97-1.56,1.41-2.43c10.64,12.86,32.11,14.21,38.23-2.79c0.04-0.08,0.08-0.15,0.12-0.24
				c5.79-13.19,6.77-21.86,7.44-28.27c3.32,1.32,6.73,1.13,8.69,0.57c2.35-0.57,2.8,3.58,1.11,6.41c-1.69,2.83-4.39,13.75-2.74,22.8
				c1.63,8.48,11.37,13.76,16.76,11.68c2.9-1.04,5.77-3.22,8.11-5.77c1.98,5.5,8.39,9.75,9.63,6.34
				c4.12-11.68,11.49-22.42,14.89-27.51c1.39-1.89,2.9-1.7,2.62-0.19c-0.22,1.32-0.87,6.4,0.13,13.19
				c1.28,7.73,9.89,17.15,20.38,16.39c9.83-0.56,13.11-9.61,15.22-16.2C326.65,201.74,321.96,198.53,321.21,199.66 M145.72,105.05
				c1.65-2.07,4.4-2.07,3.72,3.77c-1.37,12.03-3.85,23.55-7.4,34.91c-6.37,0.25-10.69,0.43-11.19,0.52
				c-3.13,0.57-1.63,6.97,5.54,7.35c0.86,0.03,1.88,0.04,3.02,0.05c-5.03,14.04-11.75,27.98-20.14,42.55
				C118.69,166.3,135.33,117.87,145.72,105.05 M154.76,199.63c-0.01,0.01-0.02,0.02-0.02,0.03c-2.23,4.52-10.99,14.7-15.27,16.39
				c-5.53,1.89-14.39-2.45-18.3-12.44c11.16-15.94,20.48-33.6,26.64-52.1c4.95-0.14,10.83-0.38,17.19-0.66l-3.04,8.29
				C159.66,166.92,152.44,184.14,154.76,199.63 M186.55,196.27c-0.18-1.89-0.04-3.58,0.23-5.65c0.74-6.04,3.59-11.88,6.1-16.02
				c7.43-10.93,12.94-4.14,10.21,3.2C201.64,182.32,195.24,192.5,186.55,196.27"/>
		</g>
		<g>
			<path class="st2" d="M350.21,97.35l-0.27,1.39l-0.28,1.28l-0.07,0.33c-0.04,0.22-0.11,0.43-0.18,0.64
				c-0.12,0.43-0.29,0.84-0.48,1.22c-0.16,0.35-0.36,0.66-0.56,0.96c1.43,1.08,2.9,2.11,4.41,3.07c2.92,1.81,6.02,3.35,9.31,4.46
				c1.63,0.58,3.32,0.97,5.03,1.29c0.83,0.14,1.66,0.25,2.5,0.32c9.93-11.88,15.9-27.17,15.9-43.87c0-37.8-30.64-68.45-68.45-68.45
				c-37.8,0-68.45,30.65-68.45,68.45c0,37.81,30.64,68.46,68.45,68.46c20.96,0,39.71-9.43,52.27-24.27
				c-0.76,0.01-1.52,0.01-2.29-0.04c-1.77-0.15-3.54-0.36-5.27-0.78c-1.74-0.39-3.46-0.91-5.13-1.55c-1.68-0.61-3.3-1.37-4.91-2.16
				c-1.75-0.88-3.45-1.87-5.1-2.93c-0.71,0.64-1.45,1.14-2.16,1.55c-1.03,0.6-2.05,1.04-3.04,1.4c-3.97,1.41-7.73,1.85-11.46,2.1
				c-3.73,0.23-7.4,0.15-11.05-0.12c-7.29-0.55-14.47-1.92-21.48-4.1c-3.5-1.12-6.93-2.49-10.26-4.19
				c-3.32-1.71-6.54-3.76-9.42-6.41c-1.44-1.33-2.77-2.82-3.92-4.49c-0.28-0.42-0.57-0.84-0.82-1.29l-0.39-0.67l-0.37-0.74
				c-0.11-0.24-0.27-0.53-0.34-0.72l-0.25-0.61l-0.13-0.3c-0.09-0.22-0.04-0.11-0.07-0.19l-0.03-0.09l-0.06-0.18l-0.23-0.71
				c-0.6-1.89-1.12-3.94-0.93-6.31c0.13-1.18,0.37-2.42,1-3.58c0.27-0.6,0.68-1.11,1.07-1.62c0.2-0.26,0.44-0.46,0.66-0.69
				c0.23-0.22,0.45-0.45,0.7-0.61c1.97-1.48,4.11-2.09,6.07-2.39c1.98-0.3,3.89-0.33,5.76-0.23c1.86,0.1,3.69,0.31,5.49,0.62
				c0.07,0.01,0.14,0.03,0.22,0.04c-0.15-0.25-0.31-0.49-0.45-0.75l-0.78-1.36l-0.73-1.4c-0.5-0.92-0.9-1.9-1.34-2.86
				c-0.38-0.99-0.77-1.97-1.07-3c-0.17-0.5-0.31-1.02-0.42-1.55c-0.13-0.52-0.26-1.04-0.34-1.57c-0.08-0.54-0.19-1.06-0.22-1.61
				c-0.04-0.54-0.1-1.07-0.09-1.63c0-0.54,0-1.09,0.07-1.63l0.08-0.82l0.16-0.81c0.19-1.08,0.58-2.13,1.01-3.13
				c0.51-0.98,1.06-1.94,1.78-2.75c0.68-0.85,1.49-1.57,2.33-2.22c0.86-0.63,1.75-1.2,2.71-1.64c0.94-0.46,1.92-0.82,2.91-1.12
				c1-0.28,2-0.53,3.01-0.67c1.01-0.17,2.03-0.26,3.05-0.31c0.28-0.01,0.56,0,0.83,0c-0.02-0.15-0.05-0.3-0.07-0.45
				c-0.51-3.73-0.65-7.63,0.17-11.68c0.42-2.02,1.1-4.08,2.23-6.03c0.26-0.49,0.59-0.96,0.93-1.43c0.29-0.45,0.75-0.97,1.19-1.46
				l0.33-0.36l0.24-0.23l0.48-0.45l0.12-0.11c-0.01,0.01,0.33-0.29,0.23-0.2l0.08-0.07l0.34-0.27c0.23-0.18,0.45-0.36,0.69-0.53
				c0.98-0.67,2.06-1.27,3.26-1.69c1.21-0.41,2.49-0.65,3.78-0.69c1.28-0.02,2.53,0.14,3.7,0.44c1.16,0.32,2.26,0.74,3.25,1.25
				c2.01,1.01,3.66,2.3,5.16,3.65c1.49,1.36,2.81,2.81,4.02,4.32c2.39,3.01,4.36,6.21,6.1,9.48c1.73,3.27,3.23,6.64,4.54,10.05
				c2.59,6.84,4.45,13.9,5.67,21.09c1.21,7.19,1.7,14.51,1.37,21.86C351.31,90,350.92,93.64,350.21,97.35z"/>
			<path class="st2" d="M295.46,75.9l-0.15-0.03c-3.22-0.64-6.68-1.07-9.94-1.05c-1.63,0.01-3.24,0.14-4.72,0.46
				c-1.48,0.3-2.77,0.87-3.55,1.56c-0.39,0.36-0.68,0.71-0.83,1.15c-0.21,0.4-0.25,0.92-0.29,1.48c-0.03,1.15,0.33,2.58,0.86,3.99
				l0.2,0.53l0.05,0.13l0.03,0.07c-0.01,0,0,0,0.01,0.01l0.12,0.26l0.27,0.6c0.1,0.22,0.17,0.3,0.25,0.46l0.24,0.43l0.29,0.46
				c0.19,0.31,0.41,0.6,0.63,0.9c0.89,1.19,1.95,2.29,3.13,3.29c2.38,2.01,5.18,3.66,8.16,5.04c2.98,1.37,6.13,2.46,9.35,3.38
				c6.44,1.82,13.17,2.86,19.87,3.22c3.35,0.18,6.7,0.17,9.97-0.09c1.63-0.14,3.24-0.34,4.8-0.63c1.54-0.29,3.05-0.66,4.35-1.16
				c0.34-0.12,0.67-0.26,0.97-0.41c-1.73-1.44-3.41-2.93-5.03-4.49c-5.17-4.95-9.72-10.52-13.83-16.39
				c-4.08-5.88-7.71-12.11-10.65-18.71c-2.83-6.39-5.17-13.08-6.28-20.27c-0.28,0.03-0.56,0.06-0.85,0.11
				c-0.99,0.15-1.97,0.34-2.93,0.6c-0.97,0.25-1.9,0.58-2.82,0.95c-0.9,0.39-1.79,0.82-2.62,1.33c-0.83,0.49-1.61,1.08-2.32,1.71
				c-0.69,0.65-1.35,1.34-1.87,2.12c-0.56,0.75-0.94,1.6-1.29,2.45c-0.28,0.88-0.53,1.77-0.61,2.69l-0.07,0.68v0.69
				c-0.03,0.46,0.02,0.92,0.06,1.39c0.09,0.92,0.25,1.85,0.49,2.76c0.09,0.46,0.24,0.91,0.39,1.37c0.14,0.45,0.29,0.9,0.48,1.34
				c0.33,0.89,0.75,1.76,1.16,2.63c0.47,0.84,0.89,1.71,1.42,2.53l0.76,1.23l0.82,1.21c0.53,0.82,1.15,1.58,1.72,2.37
				c0.6,0.78,1.23,1.53,1.84,2.3c0.72,0.9,0.57,2.23-0.34,2.95C296.66,75.87,296.04,76.01,295.46,75.9z"/>
			<path class="st2" d="M341.71,96.98l0.21-1.19c0.57-3.2,0.89-6.55,1.05-9.86c0.28-6.66-0.22-13.41-1.33-20.06
				c-1.1-6.65-2.81-13.22-5.15-19.51c-2.32-6.28-5.28-12.38-9.14-17.43c-1.91-2.49-4.14-4.73-6.4-5.95
				c-0.56-0.32-1.11-0.51-1.64-0.69c-0.53-0.14-1.02-0.21-1.49-0.22c-0.47,0-0.92,0.08-1.38,0.21c-0.46,0.16-0.94,0.38-1.42,0.69
				l-0.61,0.43l-0.48,0.44l-0.25,0.22l-0.11,0.13c-0.26,0.28-0.7,0.8-1.01,1.34c-0.66,1.07-1.16,2.35-1.49,3.76
				c-0.68,2.82-0.7,6.04-0.41,9.26c0.63,6.49,2.58,13.06,5.07,19.37c2.55,6.31,5.62,12.47,9.21,18.34
				c3.6,5.85,7.69,11.42,12.26,16.56c1.41,1.58,2.9,3.08,4.42,4.56L341.71,96.98z"/>
		</g>
	</g>
</g>
</svg>
